PathFileType	4	(X/Y/Z)	66_2_29_p1_0-333_filt_butterworth.trc
DataRate	CameraRate	NumFrames	NumMarkers	Units	OrigDataRate	OrigDataStartFrame	OrigNumFrames
60.0	60.0	6	27	m	60.0	208	333
Frame#	Time	RHip			RKnee			RAnkle			RBigToe			RSmallToe			RHeel			LHip			LKnee			LAnkle			LBigToe			LSmallToe			LHeel			Neck			Head			Nose			RShoulder			RElbow			RWrist			RThumb			RIndex			RPinky			LShoulder			LElbow			LWrist			LThumb			LIndex			LPinky			
		X1	Y1	Z1	X2	Y2	Z2	X3	Y3	Z3	X4	Y4	Z4	X5	Y5	Z5	X6	Y6	Z6	X7	Y7	Z7	X8	Y8	Z8	X9	Y9	Z9	X10	Y10	Z10	X11	Y11	Z11	X12	Y12	Z12	X13	Y13	Z13	X14	Y14	Z14	X15	Y15	Z15	X16	Y16	Z16	X17	Y17	Z17	X18	Y18	Z18	X19	Y19	Z19	X20	Y20	Z20	X21	Y21	Z21	X22	Y22	Z22	X23	Y23	Z23	X24	Y24	Z24	X25	Y25	Z25	X26	Y26	Z26	X27	Y27	Z27	
208	3.466666666666667	0.5456490949816809	0.6752069529623845	1.1358824515037087	0.5251490468345011	0.20130113676120637	1.1114986584124267	0.4983131719099428	-0.25047050483849137	1.1796478789459555	0.4896478632323106	-0.23392039136065879	0.9303106968660864	0.5513448276028008	-0.25274662431348516	0.9946563611162356	0.49209147831178857	-0.3181126306536937	1.2176517402977087	0.35304580763437127	0.6468021332093447	1.1768022783716798	0.32646597838766706	0.19842390665835558	1.1313252885842546	0.32298129089951233	-0.2170744664127306	1.1358488612890305	0.33521116428995	-0.20904817486979455	0.9132132882057155	0.28299931276446905	-0.2353459202797357	0.9862626137643075	0.3520922836313563	-0.2998503881935003	1.2079303060111946	0.44556488322400795	1.2348233256892172	1.1882472293753708	0.4422004618625217	1.499713756421674	1.16813994428676	0.42431078782162973	1.380644221947365	1.019398690438905	0.578901756441134	1.157797233583761	1.10913254663902	0.6236207172596849	0.8795834532902943	1.1025769986082388	0.509608109903001	0.7011437395430175	0.9438707017281782	0.40799068105377606	0.6471331750551373	0.9377868427843926	0.404252397791132	0.6095764479961221	0.9598199952862736	0.4405134446835208	0.5676508849591249	0.9651342083753485	0.3082622933412379	1.1372043520380593	1.1908019044380787	0.2595487775690063	0.8730520947519829	1.1567392752060348	0.36584711852548035	0.7024739195472989	1.0071431095779517	0.4241501459020218	0.6581327870865837	0.9302453874744472	0.42485184277880983	0.6358026945632986	0.9238967456397356	0.40795358745757265	0.6078674477896062	0.943260856233627	
209	3.4833333333333334	0.5449586367200562	0.6748989685152036	1.1363436089906334	0.5249651922669215	0.2009422876837093	1.1106015156640603	0.49839470195764574	-0.2501038171550736	1.1796828659103071	0.4905456729227221	-0.23664808609868032	0.9322632617369023	0.5510352680310969	-0.2542184931915508	0.9975043224064272	0.4922355635754666	-0.3179449055539775	1.2180559370172923	0.3530132711406212	0.647154923225788	1.1768951240779109	0.3263164319279531	0.19729754577888664	1.1311444976405687	0.322876107293125	-0.21665348060009354	1.1357001549609789	0.3352137573596548	-0.20799096177142087	0.9116880496399493	0.28300480081767954	-0.2353896257225975	0.9862685879461115	0.3522700579585558	-0.30004301466291167	1.2082239899777896	0.44559553639983973	1.2348180725513223	1.1883208668861327	0.4422647223511014	1.4996914165348572	1.1681878536869033	0.4243299764042081	1.3817835302098838	1.0197867644074528	0.5800033546358818	1.1578272993460164	1.108993604324338	0.626894605481703	0.8790707900317004	1.1056972640453029	0.511841567610497	0.704675337522819	0.9390112232847979	0.41148699441397263	0.6531649670608419	0.9229434242818029	0.40902373311956686	0.6175161688011701	0.9382744579308602	0.4407184690216782	0.5753257719247042	0.9550357259113184	0.30825688350998015	1.1372140437364489	1.1907906477239425	0.25502358501035943	0.8724996691225378	1.1592095898559578	0.3611778896158582	0.7046634778969141	1.002355339272257	0.42392044808445295	0.6618895237020297	0.9256265917452547	0.42382101434690717	0.6398272533138251	0.9192800896958568	0.40891950453035414	0.6086933206449422	0.9381958160111061	
210	3.5	0.5442203463070621	0.6746799788917234	1.1366614717789847	0.5249536981421953	0.20042194589382795	1.1097057246081419	0.4984810663671335	-0.24976117730837205	1.1798737863397342	0.4909512267360994	-0.23858594745950906	0.9331414192892208	0.5506937634883533	-0.25566662864209316	0.9993643159601743	0.4922934290317081	-0.3176159807024661	1.2181356294937085	0.35292287968560593	0.6476174106240857	1.1768534462504463	0.32619449958795455	0.19613159182023815	1.1310798786730485	0.32295261646218876	-0.21656168185063074	1.1356798132782484	0.33512899970611754	-0.20745586757876455	0.9108578659636972	0.2830201024551653	-0.23553432897521887	0.9863849706655183	0.3525926810179547	-0.2999926244447403	1.2082755294402947	0.4456286999412365	1.2348376508218244	1.188340821871809	0.44233596848094703	1.4996685744882001	1.1682614684520058	0.42430948038819194	1.3833404704249566	1.0203293425429818	0.5812299228165622	1.1578774087883175	1.108757854475555	0.6305077062851342	0.8781441137576597	1.1092789023253593	0.5142506193753178	0.7082176635167046	0.9346990732864178	0.41445574318815304	0.6575312716293735	0.9109792439524087	0.4136965998777804	0.6232148974821539	0.9202589314559053	0.44179430164819145	0.582074084057254	0.947159718649955	0.3082528949983424	1.1372418050972681	1.1907604627882244	0.25028179822688185	0.8720973878184552	1.1609349533978777	0.3559180828907723	0.7067014146430547	0.9969277991999751	0.42412343371804273	0.6640317810283645	0.9234194724978791	0.4232644204379934	0.6418492837977559	0.9168115037983964	0.4092533885034326	0.6072171511785082	0.9358661716294626	
211	3.5166666666666666	0.5435125736299409	0.6745028531799008	1.1368620052356777	0.5250959201807102	0.19989125520153417	1.108950303365586	0.49858037691193574	-0.24942134882661127	1.1801848828545647	0.49070161650141586	-0.23922088993153695	0.9323848115575469	0.5504224283642065	-0.2565036634349864	0.9995124836709208	0.4922896741835096	-0.3172581754651583	1.2179556098708362	0.35278052974286683	0.6482235127210145	1.1766890547167834	0.32604538443001585	0.194962742500073	1.1311016184704423	0.3232003630849018	-0.2167905155750532	1.1358063174820836	0.33503802642213865	-0.20717222247176686	0.910370188388513	0.2830433093496567	-0.23577171843990838	0.9866284220019784	0.3530795238415033	-0.2997141512675488	1.2080902595304668	0.44566077272242616	1.2348610612561255	1.188316910472885	0.4424025870375603	1.4996484046455199	1.1683536031424948	0.42423403870985743	1.3851155250456157	1.0207039921542354	0.5824186726053424	1.1579473147229842	1.1084274917555752	0.634226737216677	0.8770359480536187	1.1129470303645015	0.5165580012357525	0.711511516077717	0.9312109980156942	0.41651382346223603	0.6602438171260547	0.90283176427598	0.4174039011180143	0.6265278121465004	0.9075548357502539	0.44354770538529686	0.587384483914331	0.9415148932894414	0.3082521375914763	1.1372846593433754	1.1907061298456985	0.24576703767586747	0.8716617571256604	1.1624575442279692	0.35047590110181703	0.7081540914600776	0.9914141039342129	0.4238723672235428	0.6644829781196021	0.9234080403713074	0.4224840639881927	0.6414797710413563	0.9160524631322493	0.40848680503232726	0.603760459598019	0.936885068067277	
212	3.533333333333333	0.5428634059235484	0.6743489099277851	1.1369645224501146	0.5253848155414743	0.19943769189781219	1.1084589364035342	0.49867218999067364	-0.24906225523917416	1.180528878569104	0.4897625683936163	-0.23831064027582438	0.9297018492232454	0.550262707335152	-0.2562765133237613	0.9976726777476177	0.49222757215436136	-0.3170171554884655	1.2175250550684082	0.35255882475971206	0.6489345307242373	1.1764021877335715	0.325827311562466	0.1937983866684429	1.1311676605579772	0.3235468014497268	-0.2172821055539374	1.1360488456067341	0.3349405149367543	-0.20682054843296516	0.9098056899595005	0.28306258073357904	-0.2360596748611133	0.9869558679072927	0.3537451522847633	-0.29926446665124645	1.2076214096967115	0.44568881061710475	1.2348804272930163	1.1882608579699876	0.44245471979643614	1.4996342402430283	1.168427852196743	0.42423359639006447	1.3867123064359055	1.020415752156086	0.5833978806327808	1.1580476797812413	1.1079941296276112	0.6377551360317344	0.8760618875776248	1.1161892623428835	0.5185126150246828	0.714241341088956	0.9287120614053985	0.4177265106338275	0.6613642597223891	0.8985415184400309	0.4197078097889331	0.6276929737697652	0.9004553520306968	0.44557771913108524	0.5910180188175473	0.9376281899388937	0.3082506790935271	1.137332161682928	1.1906451091942583	0.24189725243663457	0.8711234419186896	1.164241539585078	0.34523614959982696	0.7087264212345478	0.986118190862233	0.42281542556013285	0.6635169032858264	0.9249921224291349	0.4211689959843272	0.6385526914992256	0.9166446338855466	0.40645931406902697	0.5987182225422083	0.9415184919664819	
213	3.55	0.5422615139476851	0.6742199534408411	1.136971618591034	0.52579652812464	0.19901673449378415	1.1082885183432785	0.49872643721769283	-0.2487064841242096	1.180819679011603	0.4883729186332014	-0.23623941477813534	0.9256985379140965	0.5502205562560596	-0.2548823330746478	0.9940795721872002	0.49208616296613633	-0.31695552399229837	1.2168176358154812	0.35219979725811795	0.6496829081760611	1.1759836709703189	0.32552909883485254	0.19263634767758947	1.1312707380786386	0.3239104673258244	-0.21794689603648904	1.1363476088375555	0.3348202991353289	-0.2064126305367625	0.9091957890946891	0.28307211939390553	-0.2363256852783151	0.9872711816465365	0.3545632245544298	-0.29869233081306595	1.2067959735652993	0.4457109023708898	1.234894330687162	1.1881865658200645	0.4424862744003125	1.4996273158594935	1.1684479153110692	0.42444386654542904	1.387739503312454	1.0190848968291653	0.5840296765947586	1.1581845509660151	1.1074898310610395	0.6408729327261489	0.8754017589662032	1.1187078718143377	0.5199105463790032	0.7160367058882282	0.9272491336117361	0.41848196910447116	0.6609719741526192	0.8972508047553877	0.42085215958591504	0.6272313430982903	0.897654707672777	0.4474582033340885	0.5931640398703586	0.9343648953752413	0.3082313827852939	1.1373633626258957	1.1906404236753905	0.2388334097701016	0.8706008260028835	1.1664270611031637	0.340531724014301	0.7083601970828828	0.9813445273404331	0.4212028550004562	0.661641242872165	0.9274186766725359	0.4194466944497057	0.6333381626507376	0.9181250871070687	0.403405158282922	0.5925017525160807	0.9494833677462655	
